<?xml version="1.0" encoding="UTF-8" standalone="no"?>
<svg width="65px" height="65px" viewBox="0 0 65 65" version="1.1" xmlns="http://www.w3.org/2000/svg" xmlns:xlink="http://www.w3.org/1999/xlink">
    <!-- Generator: sketchtool 3.6.1 (26313) - http://www.bohemiancoding.com/sketch -->
    <title>55FC74BB-B214-4F20-AFED-A3B1F835CD02</title>
    <desc>Created with sketchtool.</desc>
    <defs></defs>
    <g id="Style-guide:-general" stroke="none" stroke-width="1" fill="none" fill-rule="evenodd">
        <g id="Imagery" transform="translate(-45.000000, -488.000000)" fill="#DADCDA">
            <g id="Group-9" transform="translate(45.000000, 488.000000)">
                <g id="emptystate/file">
                    <path d="M32.585,62.9563 C15.899,62.9563 2.324,49.3813 2.324,32.6953 C2.324,16.0103 15.899,2.4353 32.585,2.4353 C49.271,2.4353 62.846,16.0103 62.846,32.6953 C62.846,49.3813 49.271,62.9563 32.585,62.9563 M32.585,0.6963 C14.94,0.6963 0.585,15.0503 0.585,32.6953 C0.585,50.3403 14.94,64.6963 32.585,64.6963 C50.23,64.6963 64.585,50.3403 64.585,32.6953 C64.585,15.0503 50.23,0.6963 32.585,0.6963" id="Fill-7"></path>
                    <path d="M19.9534,48.946 L19.9534,16.446 L34.4534,16.446 L34.4534,25.946 C34.4534,26.498 34.9004,26.946 35.4534,26.946 L44.9534,26.946 L44.9534,48.946 L19.9534,48.946 Z M36.4534,17.86 L43.5394,24.946 L36.4534,24.946 L36.4534,17.86 Z M46.8754,25.561 C46.8254,25.44 46.7514,25.33 46.6594,25.238 L36.1614,14.74 C36.0694,14.648 35.9604,14.575 35.8384,14.524 C35.7174,14.473 35.5874,14.446 35.4534,14.446 L18.9534,14.446 C18.4004,14.446 17.9534,14.894 17.9534,15.446 L17.9534,49.946 C17.9534,50.498 18.4004,50.946 18.9534,50.946 L45.9534,50.946 C46.5064,50.946 46.9534,50.498 46.9534,49.946 L46.9534,25.946 C46.9534,25.813 46.9264,25.682 46.8754,25.561 L46.8754,25.561 Z" id="Fill-9"></path>
                    <path d="M41.5852,31.5002 L23.5852,31.5002 C23.0322,31.5002 22.5852,31.9482 22.5852,32.5002 C22.5852,33.0522 23.0322,33.5002 23.5852,33.5002 L41.5852,33.5002 C42.1382,33.5002 42.5852,33.0522 42.5852,32.5002 C42.5852,31.9482 42.1382,31.5002 41.5852,31.5002" id="Fill-11"></path>
                    <path d="M41.5852,36.5002 L23.5852,36.5002 C23.0322,36.5002 22.5852,36.9482 22.5852,37.5002 C22.5852,38.0522 23.0322,38.5002 23.5852,38.5002 L41.5852,38.5002 C42.1382,38.5002 42.5852,38.0522 42.5852,37.5002 C42.5852,36.9482 42.1382,36.5002 41.5852,36.5002" id="Fill-13"></path>
                    <path d="M41.5852,41.5002 L23.5852,41.5002 C23.0322,41.5002 22.5852,41.9482 22.5852,42.5002 C22.5852,43.0522 23.0322,43.5002 23.5852,43.5002 L41.5852,43.5002 C42.1382,43.5002 42.5852,43.0522 42.5852,42.5002 C42.5852,41.9482 42.1382,41.5002 41.5852,41.5002" id="Fill-15"></path>
                </g>
            </g>
        </g>
    </g>
</svg>